<?xml version="1.0" encoding="utf-8"?>
<!-- Generator: Adobe Illustrator 22.1.0, SVG Export Plug-In . SVG Version: 6.00 Build 0)  -->
<svg version="1.1" id="Layer_1" xmlns="http://www.w3.org/2000/svg" xmlns:xlink="http://www.w3.org/1999/xlink" x="0px" y="0px"
	 viewBox="0 0 976 601.1" style="enable-background:new 0 0 976 601.1;" xml:space="preserve">
<style type="text/css">
	.st0{fill:#231F20;}
</style>
<path class="st0" d="M409.6,135.9c0-58.8-47.3-106.5-106-107.1v160.6c0,32.6,37.3,51.6,63.4,32C392.8,201.9,409.6,170.9,409.6,135.9
	z"/>
<path class="st0" d="M305,328.2v240c0,6.1,5.2,10.9,11.2,10.5c76.8-5.7,137.3-69.9,137.3-148.1c0-63.3-39.6-117.4-95.5-138.8
	C332.5,282,305,300.8,305,328.2z"/>
<path class="st0" d="M664.8,28.9H508.7v550.3h156.1c17.7,0,32.1-14.4,32.1-32.1V60.9C696.9,43.2,682.5,28.9,664.8,28.9z"/>
<path class="st0" d="M236.2,579.1c6.4,0,9.6-9.1,3.8-11.9c-43.3-20.6-86.9-57.6-86.9-136.7c0-68.9,40.4-128.1,99-154.6
	c7-3.1,11.5-10,11.5-17.7v0c0-6.7-3.5-12.8-9.1-16.4c-35.2-22.2-58.5-61.4-58.5-106C196,98,212.9,64,239.5,41
	c4.9-4.2,2-12.2-4.5-12.2l-211.8,0v550.3H236.2z"/>
<path class="st0" d="M805.4,28.9h-67.6v26.5v111.1c0,36.8,29.8,66.6,66.6,66.6h2.1c57.3,0,103.6-47.2,102.1-104.8
	C907.1,72.8,860.9,28.9,805.4,28.9z"/>
<path class="st0" d="M809.9,289.3v-0.1H754c-9,0-16.2,7.3-16.2,16.2l0,0V405c0,96.1,77.9,174.1,174.1,174.1h37.6v-145
	C949.5,355.9,887.5,292.1,809.9,289.3z"/>
</svg>
